# Exported from Clara.io
g Cylinder
v 0 -0.5 0.5
v -0.1294 -0.5 -0.483
v -0.25 -0.5 -0.433
v -0.3536 -0.5 -0.3536
v -0.433 -0.5 -0.25
v -0.483 -0.5 -0.1294
v -0.5 -0.5 0
v -0.483 -0.5 0.1294
v -0.433 -0.5 0.25
v -0.3536 -0.5 0.3536
v -0.25 -0.5 0.433
v -0.1294 -0.5 0.483
v 0 -0.5 0.46875
v -0.12131249999999999 -0.5 0.45281249999999995
v -0.12131249999999999 -0.5 -0.45281249999999995
v -0.234375 -0.5 -0.40593749999999995
v -0.3315 -0.5 -0.3315
v -0.40593749999999995 -0.5 -0.234375
v -0.45281249999999995 -0.5 -0.12131249999999999
v -0.46875 -0.5 0
v -0.45281249999999995 -0.5 0.12131249999999999
v -0.40593749999999995 -0.5 0.234375
v -0.3315 -0.5 0.3315
v -0.234375 -0.5 0.40593749999999995
v -0.06470707504356035 -0.5 -0.49149907051205155
v -0.060662882853337825 -0.5 -0.46078037860504834
v 0 -0.5 0.5
v 0.1294 -0.5 -0.483
v 0.25 -0.5 -0.433
v 0.3536 -0.5 -0.3536
v 0.433 -0.5 -0.25
v 0.483 -0.5 -0.1294
v 0.5 -0.5 0
v 0.483 -0.5 0.1294
v 0.433 -0.5 0.25
v 0.3536 -0.5 0.3536
v 0.25 -0.5 0.433
v 0.1294 -0.5 0.483
v 0 -0.5 0.46875
v 0.12131249999999999 -0.5 0.45281249999999995
v 0.12131249999999999 -0.5 -0.45281249999999995
v 0.234375 -0.5 -0.40593749999999995
v 0.3315 -0.5 -0.3315
v 0.40593749999999995 -0.5 -0.234375
v 0.45281249999999995 -0.5 -0.12131249999999999
v 0.46875 -0.5 0
v 0.45281249999999995 -0.5 0.12131249999999999
v 0.40593749999999995 -0.5 0.234375
v 0.3315 -0.5 0.3315
v 0.234375 -0.5 0.40593749999999995
v 0.06470707504356035 -0.5 -0.49149907051205155
v 0.060662882853337825 -0.5 -0.46078037860504834
v -0.1294 -0.34598698148555984 -0.483
v -0.25 -0.3459869814855598 -0.433
v -0.3536 -0.3459869814855598 -0.3536
v -0.433 -0.3459869814855598 -0.25
v -0.483 -0.3459869814855597 -0.1294
v -0.5 -0.3459869814855597 0
v -0.483 -0.3459869814855597 0.1294
v -0.433 -0.3459869814855598 0.25
v -0.3536 -0.3459869814855598 0.3536
v -0.25 -0.3459869814855598 0.433
v -0.1294 -0.3459869814855598 0.483
v 0 -0.3459869814855598 0.5
v -0.2169619030942111 -0.3459869814855598 0.41315686024286435
v -0.10262879569146696 -0.3459869814855598 0.45526708248257386
v -0.316541485576785 -0.3459869814855598 0.34296434406566867
v -0.3944731559343313 -0.3459869814855598 0.249333514423215
v -0.44559313975713555 -0.3459869814855598 0.1387255969057889
v -0.4662954175174261 -0.3459869814855597 0.018683704308533042
v -0.45526708248257386 -0.3459869814855598 -0.10262879569146696
v -0.41315686024286435 -0.3459869814855598 -0.2169619030942111
v -0.34296434406566867 -0.3459869814855598 -0.316541485576785
v -0.249333514423215 -0.3459869814855598 -0.3944731559343313
v -0.1387255969057889 -0.3459869814855598 -0.44559313975713555
v -0.06066284735678359 -0.3459869814855598 -0.46078010898192906
v -8.549439962337602e-18 -0.3459869814855598 0.4662954175174261
v -0.06470707504356035 -0.34598698148555984 -0.49149907051205155
v 0.25 -0.34598698148555984 -0.433
v 0.1294 -0.3459869814855598 -0.483
v 0.3536 -0.34598698148555984 -0.3536
v 0.433 -0.34598698148555984 -0.25
v 0.483 -0.34598698148555984 -0.1294
v 0.5 -0.34598698148555984 0
v 0.483 -0.34598698148555984 0.1294
v 0.433 -0.34598698148555984 0.25
v 0.3536 -0.34598698148555984 0.3536
v 0.25 -0.34598698148555984 0.433
v 0.1294 -0.34598698148555984 0.483
v 0 -0.34598698148555984 0.5
v 0.2169619030942111 -0.3459869814855598 0.41315686024286435
v 0.10262879569146696 -0.3459869814855598 0.45526708248257386
v 0.316541485576785 -0.34598698148555984 0.34296434406566867
v 0.3944731559343313 -0.34598698148555984 0.249333514423215
v 0.44559313975713555 -0.34598698148555984 0.1387255969057889
v 0.4662954175174261 -0.34598698148555984 0.01868370430853302
v 0.45526708248257386 -0.34598698148555984 -0.10262879569146696
v 0.41315686024286435 -0.34598698148555984 -0.2169619030942111
v 0.34296434406566867 -0.34598698148555984 -0.316541485576785
v 0.249333514423215 -0.34598698148555984 -0.3944731559343313
v 0.1387255969057889 -0.3459869814855598 -0.44559313975713555
v 0.06066284735678359 -0.3459869814855598 -0.46078010898192906
v 8.549439962337602e-18 -0.3459869814855598 0.4662954175174261
v 0.06470707504356035 -0.3459869814855598 -0.49149907051205155
v 0 -0.3459869814855598 0.49518709317142373
v 0 -0.34598698148555984 0.49518709317142373

vn 0 0 1
vn 0 -1 0
vn 0 -1 0
vn -0.2588442618257737 0 -0.9659190691356447
vn 0 -1 0
vn -0.4998902462437607 0 -0.8660887608728982
vn 0 -1 0
vn -0.7071067811865475 0 -0.7071067811865475
vn 0 -1 0
vn -0.8660887608728982 0 -0.4998902462437607
vn 0 -1 0
vn -0.9659190691356447 0 -0.2588442618257737
vn 0 -1 0
vn -1 0 0
vn 0 -1 0
vn -0.9659190691356447 0 0.2588442618257737
vn 0 -1 0
vn -0.8660887608728982 0 0.4998902462437607
vn 0 -1 0
vn -0.7071067811865475 0 0.7071067811865475
vn 0 -1 0
vn -0.4998902462437607 0 0.8660887608728982
vn 0 -1 0
vn -0.2588442618257737 0 0.9659190691356447
vn 0 -1 0
vn -0.06513439500774956 -0.008038153990576242 -0.9978441254361317
vn 0.32115422349268385 -0.008033622630376958 0.9469928329402731
vn 0 -1 0
vn 0.5552345089544307 -0.008041296862301792 0.8316549630771792
vn 0 -1 0
vn 0.7516537905571369 -0.008042267883451562 0.6595088331996612
vn 0 -1 0
vn 0.8967573316382295 -0.008032981962057251 0.44244972522748804
vn 0 -1 0
vn 0.9806932360298635 -0.008037801288409585 0.19538723232525337
vn 0 -1 0
vn 0.9978441254361317 -0.008038153990576218 -0.06513439500774944
vn 0 -1 0
vn 0.9469928329402731 -0.008033622630376984 -0.32115422349268397
vn 0 -1 0
vn 0.8316549630771792 -0.008041296862301865 -0.5552345089544307
vn 0 -1 0
vn 0.6595088331996612 -0.008042267883451594 -0.7516537905571369
vn 0 -1 0
vn 0.44244972522748804 -0.008032981962057189 -0.8967573316382295
vn 0 -1 0
vn 0.19538723232525326 -0.008037801288409587 -0.9806932360298636
vn 0 -1 0
vn -0.1294362834200566 0 -0.9829576711669689
vn 0 -1 0
vn 0 -1 0
vn 0.19315830732934225 -0.00803588806272103 0.9724156988550532
vn 0 0 1
vn 0 -1 0
vn 0 -1 0
vn 0.2588442618257737 0 -0.9659190691356447
vn 0 -1 0
vn 0.4998902462437607 0 -0.8660887608728982
vn 0 -1 0
vn 0.7071067811865475 0 -0.7071067811865475
vn 0 -1 0
vn 0.8660887608728982 0 -0.4998902462437607
vn 0 -1 0
vn 0.9659190691356447 0 -0.2588442618257737
vn 0 -1 0
vn 1 0 0
vn 0 -1 0
vn 0.9659190691356447 0 0.2588442618257737
vn 0 -1 0
vn 0.8660887608728982 0 0.4998902462437607
vn 0 -1 0
vn 0.7071067811865475 0 0.7071067811865475
vn 0 -1 0
vn 0.4998902462437607 0 0.8660887608728982
vn 0 -1 0
vn 0.2588442618257737 0 0.9659190691356447
vn 0 -1 0
vn 0.06513439500774956 -0.008038153990576242 -0.9978441254361317
vn -0.32115422349268385 -0.008033622630376958 0.9469928329402731
vn 0 -1 0
vn -0.5552345089544307 -0.008041296862301792 0.8316549630771792
vn 0 -1 0
vn -0.7516537905571369 -0.008042267883451562 0.6595088331996612
vn 0 -1 0
vn -0.8967573316382295 -0.008032981962057251 0.44244972522748804
vn 0 -1 0
vn -0.9806932360298635 -0.008037801288409585 0.19538723232525337
vn 0 -1 0
vn -0.9978441254361317 -0.008038153990576218 -0.06513439500774944
vn 0 -1 0
vn -0.9469928329402731 -0.008033622630376984 -0.32115422349268397
vn 0 -1 0
vn -0.8316549630771792 -0.008041296862301865 -0.5552345089544307
vn 0 -1 0
vn -0.6595088331996612 -0.008042267883451594 -0.7516537905571369
vn 0 -1 0
vn -0.44244972522748804 -0.008032981962057189 -0.8967573316382295
vn 0 -1 0
vn -0.19538723232525326 -0.008037801288409587 -0.9806932360298636
vn 0 -1 0
vn 0.1294362834200566 0 -0.9829576711669689
vn 0 -1 0
vn 0 -1 0
vn -0.19315830732934225 -0.00803588806272103 0.9724156988550532
vn 1 0 0
vn 0.9914448627185042 1.3996937357242775e-17 -0.13052618200608715
vn 0.9914448627185042 1.3996937357242775e-17 -0.13052618200608715
vn -1 0 0
vn -0.9914448627185042 1.3996937357242775e-17 -0.13052618200608715
vn -0.9914448627185042 1.3996937357242775e-17 -0.13052618200608715
vn -0.2588442618257737 0 -0.9659190691356447
vn -0.4998902462437607 0 -0.8660887608728982
vn -0.4998902462437607 0 -0.8660887608728982
vn -0.7071067811865475 0 -0.7071067811865475
vn -0.7071067811865475 0 -0.7071067811865475
vn -0.8660887608728982 0 -0.4998902462437607
vn -0.8660887608728982 0 -0.4998902462437607
vn -0.9659190691356447 0 -0.2588442618257737
vn -0.9659190691356447 0 -0.2588442618257737
vn -1 0 0
vn -1 0 0
vn -0.9659190691356447 0 0.2588442618257737
vn -0.9659190691356447 0 0.2588442618257737
vn -0.8660887608728982 0 0.4998902462437607
vn -0.8660887608728982 0 0.4998902462437607
vn -0.7071067811865475 0 0.7071067811865475
vn -0.7071067811865475 0 0.7071067811865475
vn -0.4998902462437607 0 0.8660887608728982
vn -0.4998902462437607 0 0.8660887608728982
vn -0.2588442618257737 0 0.9659190691356447
vn -0.2588442618257737 0 0.9659190691356447
vn 0 0 1
vn 0.42029080120598594 -0.006055011305678317 -0.9066354954952894
vn 0.17138789214777705 -0.006056127211982309 -0.9845070420349012
vn 0.640617349517927 -0.006058818573539777 -0.76696510135076
vn 0.42029080120598594 -0.006055011305678318 -0.9066354954952894
vn 0.8173934533915751 -0.006061818312754184 -0.5748892476192565
vn 0.640617349517927 -0.006058818573539776 -0.76696510135076
vn 0.9383015580687943 -0.00605275164451122 -0.343831079934896
vn 0.8173934533915751 -0.006061818312754183 -0.5748892476192565
vn 0.9953181387970177 -0.006058789596387639 -0.08928459750192662
vn 0.9383015580687943 -0.006052751644511219 -0.343831079934896
vn 0.9845070420349011 -0.006056127211982306 0.17138789214777717
vn 0.9953181387970177 -0.006058789596387639 -0.0892845975019266
vn 0.9066354954952894 -0.0060550113056783705 0.42029080120598594
vn 0.9845070420349011 -0.0060561272119823055 0.17138789214777717
vn 0.76696510135076 -0.006058818573539749 0.640617349517927
vn 0.9066354954952894 -0.00605501130567837 0.42029080120598594
vn 0.5748892476192565 -0.006061818312754114 0.8173934533915751
vn 0.76696510135076 -0.006058818573539748 0.640617349517927
vn 0.34383107993489587 -0.006052751644511203 0.9383015580687943
vn 0.5748892476192565 -0.006061818312754114 0.8173934533915751
vn 0.17787811552094332 -0.006057221471888911 0.9777211156311397
vn 0.34383107993489587 -0.006052751644511204 0.9383015580687943
vn 0.17138789214777705 -0.006056127211982309 -0.9845070420349012
vn -0.0410358607570759 -0.006057136904366414 -0.9967985515507181
vn -0.2588442618257737 0 -0.9659190691356447
vn -0.1294362834200566 0 -0.9829576711669689
vn 0.17138789214777705 -0.006056127211982309 -0.9845070420349012
vn -0.0410358607570759 -0.006057136904366414 -0.9967985515507181
vn 0.4998902462437607 0 -0.8660887608728982
vn 0.2588442618257737 0 -0.9659190691356447
vn 0.7071067811865475 0 -0.7071067811865475
vn 0.4998902462437607 0 -0.8660887608728982
vn 0.8660887608728982 0 -0.4998902462437607
vn 0.7071067811865475 0 -0.7071067811865475
vn 0.9659190691356447 0 -0.2588442618257737
vn 0.8660887608728982 0 -0.4998902462437607
vn 1 0 0
vn 0.9659190691356447 0 -0.2588442618257737
vn 0.9659190691356447 0 0.2588442618257737
vn 1 0 0
vn 0.8660887608728982 0 0.4998902462437607
vn 0.9659190691356447 0 0.2588442618257737
vn 0.7071067811865475 0 0.7071067811865475
vn 0.8660887608728982 0 0.4998902462437607
vn 0.4998902462437607 0 0.8660887608728982
vn 0.7071067811865475 0 0.7071067811865475
vn 0.2588442618257737 0 0.9659190691356447
vn 0.4998902462437607 0 0.8660887608728982
vn 0 0 1
vn 0.2588442618257737 0 0.9659190691356447
vn -0.42029080120598594 -0.006055011305678318 -0.9066354954952894
vn -0.17138789214777705 -0.006056127211982309 -0.9845070420349012
vn -0.640617349517927 -0.006058818573539778 -0.76696510135076
vn -0.42029080120598594 -0.0060550113056783185 -0.9066354954952894
vn -0.8173934533915751 -0.006061818312754184 -0.5748892476192565
vn -0.640617349517927 -0.006058818573539778 -0.76696510135076
vn -0.9383015580687943 -0.006052751644511221 -0.343831079934896
vn -0.8173934533915751 -0.006061818312754184 -0.5748892476192565
vn -0.9953181387970177 -0.006058789596387641 -0.08928459750192659
vn -0.9383015580687943 -0.006052751644511221 -0.343831079934896
vn -0.9845070420349011 -0.006056127211982307 0.17138789214777717
vn -0.9953181387970177 -0.006058789596387641 -0.08928459750192659
vn -0.9066354954952894 -0.0060550113056783705 0.42029080120598594
vn -0.9845070420349011 -0.006056127211982306 0.17138789214777717
vn -0.76696510135076 -0.006058818573539749 0.640617349517927
vn -0.9066354954952894 -0.0060550113056783705 0.42029080120598594
vn -0.5748892476192565 -0.006061818312754115 0.8173934533915751
vn -0.76696510135076 -0.006058818573539749 0.640617349517927
vn -0.34383107993489587 -0.006052751644511204 0.9383015580687943
vn -0.5748892476192565 -0.006061818312754116 0.8173934533915751
vn -0.17787811552094332 -0.006057221471888911 0.9777211156311397
vn -0.34383107993489587 -0.006052751644511203 0.9383015580687943
vn -0.17138789214777705 -0.006056127211982309 -0.9845070420349012
vn 0.0410358607570759 -0.006057136904366414 -0.9967985515507181
vn 0.2588442618257737 0 -0.9659190691356447
vn 0.1294362834200566 0 -0.9829576711669689
vn -0.17138789214777705 -0.006056127211982309 -0.9845070420349012
vn 0.0410358607570759 -0.006057136904366414 -0.9967985515507181
vn 1 0 0
vn 1 0 0
vn 0.9914448627185042 1.3996937357242775e-17 -0.13052618200608715
vn 0.9914448627185042 1.3996937357242775e-17 -0.13052618200608715
vn -1 0 0
vn -1 0 0
vn -0.9914448627185042 1.3996937357242775e-17 -0.13052618200608715
vn -0.9914448627185042 1.3996937357242775e-17 -0.13052618200608715

vt 0.5416666666666666 0
vt 0.5416666666666666 0
vt 0.5833333333333334 0
vt 0.5833333333333334 0
vt 0.625 0
vt 0.625 0
vt 0.6666666666666666 0
vt 0.6666666666666666 0
vt 0.7083333333333334 0
vt 0.7083333333333334 0
vt 0.75 0
vt 0.75 0
vt 0.7916666666666666 0
vt 0.7916666666666666 0
vt 0.8333333333333334 0
vt 0.8333333333333334 0
vt 0.875 0
vt 0.875 0
vt 0.9166666666666666 0
vt 0.9166666666666666 0
vt 0.9583333333333334 0
vt 0.9583333333333334 0
vt 1 0
vt 0.5416666666666666 0
vt 0.5833333333333334 0
vt 0.5416666666666666 0
vt 0.625 0
vt 0.5833333333333334 0
vt 0.6666666666666666 0
vt 0.625 0
vt 0.7083333333333334 0
vt 0.6666666666666666 0
vt 0.75 0
vt 0.7083333333333334 0
vt 0.7916666666666666 0
vt 0.75 0
vt 0.8333333333333334 0
vt 0.7916666666666666 0
vt 0.875 0
vt 0.8333333333333334 0
vt 0.9166666666666666 0
vt 0.875 0
vt 0.9583333333333334 0
vt 0.9166666666666666 0
vt 1 0
vt 0.9583333333333334 0
vt 0.8984375 0.06250000000000007
vt 0.9375 0.0625
vt 0.5078124999999999 0.06250000000000007
vt 0.5078124999999999 0.06250000000000007
vt 0.546875 0.06250000000000008
vt 0.546875 0.0625000000000001
vt 0.5859375 0.06250000000000003
vt 0.5859375 0.06250000000000001
vt 0.6249999999999999 0.06250000000000008
vt 0.6249999999999999 0.0625000000000001
vt 0.6640625 0.06250000000000007
vt 0.6640625 0.06250000000000007
vt 0.703125 0.0625
vt 0.703125 0.0625
vt 0.7421874999999999 0.06250000000000007
vt 0.7421874999999999 0.06250000000000007
vt 0.78125 0.06250000000000008
vt 0.78125 0.0625000000000001
vt 0.8203125 0.06250000000000003
vt 0.8203125 0.06250000000000001
vt 0.8593749999999999 0.06250000000000008
vt 0.8593749999999999 0.0625000000000001
vt 0.8984375 0.06250000000000007
vt 0 0
vt 0 0
vt 0 0
vt 0 0
vt 0 0
vt 0 0
vt 0 0
vt 0 0
vt 0 0
vt 0 0
vt 0 0
vt 0 0
vt 0 0
vt 0 0
vt 0 0
vt 0 0
vt 0 0
vt 0 0
vt 0 0
vt 0 0
vt 0 0
vt 0 0
vt 0 0
vt 0.5208356114900696 0
vt 0.5208356114900696 0
vt 0.48828338577194025 0.06250000000000004
vt 0 0
vt 0.5416666666666666 0
vt 0.5416666666666666 0
vt 0.5833333333333334 0
vt 0.5833333333333334 0
vt 0.625 0
vt 0.625 0
vt 0.6666666666666666 0
vt 0.6666666666666666 0
vt 0.7083333333333334 0
vt 0.7083333333333334 0
vt 0.75 0
vt 0.75 0
vt 0.7916666666666666 0
vt 0.7916666666666666 0
vt 0.8333333333333334 0
vt 0.8333333333333334 0
vt 0.875 0
vt 0.875 0
vt 0.9166666666666666 0
vt 0.9166666666666666 0
vt 0.9583333333333334 0
vt 0.9583333333333334 0
vt 1 0
vt 0.5416666666666666 0
vt 0.5833333333333334 0
vt 0.5416666666666666 0
vt 0.625 0
vt 0.5833333333333334 0
vt 0.6666666666666666 0
vt 0.625 0
vt 0.7083333333333334 0
vt 0.6666666666666666 0
vt 0.75 0
vt 0.7083333333333334 0
vt 0.7916666666666666 0
vt 0.75 0
vt 0.8333333333333334 0
vt 0.7916666666666666 0
vt 0.875 0
vt 0.8333333333333334 0
vt 0.9166666666666666 0
vt 0.875 0
vt 0.9583333333333334 0
vt 0.9166666666666666 0
vt 1 0
vt 0.9583333333333334 0
vt 0.8984375 0.06250000000000007
vt 0.9375 0.0625
vt 0.5078124999999999 0.06250000000000007
vt 0.5078124999999999 0.06250000000000007
vt 0.546875 0.06250000000000008
vt 0.546875 0.0625000000000001
vt 0.5859375 0.06250000000000003
vt 0.5859375 0.06250000000000001
vt 0.6249999999999999 0.06250000000000008
vt 0.6249999999999999 0.0625000000000001
vt 0.6640625 0.06250000000000007
vt 0.6640625 0.06250000000000007
vt 0.703125 0.0625
vt 0.703125 0.0625
vt 0.7421874999999999 0.06250000000000007
vt 0.7421874999999999 0.06250000000000007
vt 0.78125 0.06250000000000008
vt 0.78125 0.0625000000000001
vt 0.8203125 0.06250000000000003
vt 0.8203125 0.06250000000000001
vt 0.8593749999999999 0.06250000000000008
vt 0.8593749999999999 0.0625000000000001
vt 0.8984375 0.06250000000000007
vt 0 0
vt 0 0
vt 0 0
vt 0 0
vt 0 0
vt 0 0
vt 0 0
vt 0 0
vt 0 0
vt 0 0
vt 0 0
vt 0 0
vt 0 0
vt 0 0
vt 0 0
vt 0 0
vt 0 0
vt 0 0
vt 0 0
vt 0 0
vt 0 0
vt 0 0
vt 0 0
vt 0.5208356114900696 0
vt 0.5208356114900696 0
vt 0.48828338577194025 0.06250000000000004
vt 0 0
vt 0 0
vt 0 0
vt 0 0
vt 0 0
vt 0 0
vt 0 0
vt 0.5416666666666666 0.15401301851444016
vt 0.5833333333333334 0.15401301851444021
vt 0.5833333333333334 0.15401301851444027
vt 0.625 0.15401301851444021
vt 0.625 0.15401301851444027
vt 0.6666666666666666 0.15401301851444021
vt 0.6666666666666666 0.15401301851444027
vt 0.7083333333333334 0.15401301851444033
vt 0.7083333333333334 0.15401301851444027
vt 0.75 0.15401301851444033
vt 0.75 0.15401301851444027
vt 0.7916666666666666 0.15401301851444033
vt 0.7916666666666666 0.15401301851444027
vt 0.8333333333333334 0.15401301851444021
vt 0.8333333333333334 0.15401301851444027
vt 0.875 0.15401301851444021
vt 0.875 0.15401301851444027
vt 0.9166666666666666 0.15401301851444021
vt 0.9166666666666666 0.15401301851444027
vt 0.9583333333333334 0.15401301851444021
vt 0.9583333333333334 0.15401301851444016
vt 1 0.15401301851444021
vt 0 0
vt 0 0
vt 0 0
vt 0 0
vt 0 0
vt 0 0
vt 0 0
vt 0 0
vt 0 0
vt 0 0
vt 0 0
vt 0 0
vt 0 0
vt 0 0
vt 0 0
vt 0 0
vt 0 0
vt 0 0
vt 0 0
vt 0 0
vt 0 0
vt 0 0
vt 0 0
vt 0 0
vt 0.5416666666666666 0.15401301851444021
vt 0.5208356114900696 0.15401301851444016
vt 0 0
vt 0 0
vt 0.5833333333333334 0.15401301851444016
vt 0.5416666666666666 0.15401301851444021
vt 0.625 0.15401301851444016
vt 0.5833333333333334 0.15401301851444016
vt 0.6666666666666666 0.15401301851444016
vt 0.625 0.15401301851444016
vt 0.7083333333333334 0.15401301851444016
vt 0.6666666666666666 0.15401301851444016
vt 0.75 0.15401301851444016
vt 0.7083333333333334 0.15401301851444016
vt 0.7916666666666666 0.15401301851444016
vt 0.75 0.15401301851444016
vt 0.8333333333333334 0.15401301851444016
vt 0.7916666666666666 0.15401301851444016
vt 0.875 0.15401301851444016
vt 0.8333333333333334 0.15401301851444016
vt 0.9166666666666666 0.15401301851444016
vt 0.875 0.15401301851444016
vt 0.9583333333333334 0.15401301851444016
vt 0.9166666666666666 0.15401301851444016
vt 1 0.15401301851444016
vt 0.9583333333333334 0.15401301851444021
vt 0 0
vt 0 0
vt 0 0
vt 0 0
vt 0 0
vt 0 0
vt 0 0
vt 0 0
vt 0 0
vt 0 0
vt 0 0
vt 0 0
vt 0 0
vt 0 0
vt 0 0
vt 0 0
vt 0 0
vt 0 0
vt 0 0
vt 0 0
vt 0 0
vt 0 0
vt 0 0
vt 0 0
vt 0.5416666666666666 0.15401301851444016
vt 0.5208356114900696 0.15401301851444021
vt 0 0
vt 0 0
vt 0 0
vt 0 0
vt 0 0
vt 0 0
vt 0 0
vt 0 0
vt 0 0
vt 0 0

f 2/24/3 25/94/50 26/95/51 15/49/28
f 3/25/5 2/26/3 15/50/28 16/51/30
f 4/27/7 3/28/5 16/52/30 17/53/32
f 5/29/9 4/30/7 17/54/32 18/55/34
f 6/31/11 5/32/9 18/56/34 19/57/36
f 7/33/13 6/34/11 19/58/36 20/59/38
f 8/35/15 7/36/13 20/60/38 21/61/40
f 9/37/17 8/38/15 21/62/40 22/63/42
f 10/39/19 9/40/17 22/64/42 23/65/44
f 11/41/21 10/42/19 23/66/44 24/67/46
f 12/43/23 11/44/21 24/68/46 14/69/48
f 1/45/2 12/46/23 14/47/48 13/48/25
f 14/72/47 24/73/45 65/221/133 66/222/134
f 24/74/45 23/75/43 67/223/135 65/224/136
f 23/76/43 22/77/41 68/225/137 67/226/138
f 22/78/41 21/79/39 69/227/139 68/228/140
f 21/80/39 20/81/37 70/229/141 69/230/142
f 20/82/37 19/83/35 71/231/143 70/232/144
f 19/84/35 18/85/33 72/233/145 71/234/146
f 18/86/33 17/87/31 73/235/147 72/236/148
f 17/88/31 16/89/29 74/237/149 73/238/150
f 16/90/29 15/91/27 75/239/151 74/240/152
f 15/92/27 26/96/52 76/241/153 75/242/154
f 1/45/2 12/46/23 14/47/48 13/48/25
f 13/70/26 14/71/47 66/243/155 77/244/156
f 25/93/49 2/1/4 53/245/157 78/246/158
f 1/45/2 12/46/23 14/47/48 13/48/25
f 1/45/2 12/46/23 14/47/48 13/48/25
f 13/70/26 14/71/47 66/247/159 77/248/160
f 41/145/80 52/191/103 51/190/102 28/120/55
f 42/147/82 41/146/80 28/122/55 29/121/57
f 43/149/84 42/148/82 29/124/57 30/123/59
f 44/151/86 43/150/84 30/126/59 31/125/61
f 45/153/88 44/152/86 31/128/61 32/127/63
f 46/155/90 45/154/88 32/130/63 33/129/65
f 47/157/92 46/156/90 33/132/65 34/131/67
f 48/159/94 47/158/92 34/134/67 35/133/69
f 49/161/96 48/160/94 35/136/69 36/135/71
f 50/163/98 49/162/96 36/138/71 37/137/73
f 40/165/100 50/164/98 37/140/73 38/139/75
f 39/144/77 40/143/100 38/142/75 27/141/54
f 39/144/77 40/143/100 38/142/75 27/141/54
f 39/144/77 40/143/100 38/142/75 27/141/54
f 39/144/77 40/143/100 38/142/75 27/141/54
f 1/193/105 105/299/211 64/300/212
f 53/199/111 2/2/4 3/3/6 54/200/112
f 54/201/113 3/4/6 4/5/8 55/202/114
f 55/203/115 4/6/8 5/7/10 56/204/116
f 56/205/117 5/8/10 6/9/12 57/206/118
f 57/207/119 6/10/12 7/11/14 58/208/120
f 58/209/121 7/12/14 8/13/16 59/210/122
f 59/211/123 8/14/16 9/15/18 60/212/124
f 60/213/125 9/16/18 10/17/20 61/214/126
f 61/215/127 10/18/20 11/19/22 62/216/128
f 62/217/129 11/20/22 12/21/24 63/218/130
f 63/219/131 12/22/24 1/23/1 64/220/132
f 79/249/161 29/99/58 28/98/56 80/250/162
f 81/251/163 30/101/60 29/100/58 79/252/164
f 82/253/165 31/103/62 30/102/60 81/254/166
f 83/255/167 32/105/64 31/104/62 82/256/168
f 84/257/169 33/107/66 32/106/64 83/258/170
f 85/259/171 34/109/68 33/108/66 84/260/172
f 86/261/173 35/111/70 34/110/68 85/262/174
f 87/263/175 36/113/72 35/112/70 86/264/176
f 88/265/177 37/115/74 36/114/72 87/266/178
f 89/267/179 38/117/76 37/116/74 88/268/180
f 90/269/181 27/119/53 38/118/76 89/270/182
f 91/271/183 50/169/97 40/168/99 92/272/184
f 93/273/185 49/171/95 50/170/97 91/274/186
f 94/275/187 48/173/93 49/172/95 93/276/188
f 95/277/189 47/175/91 48/174/93 94/278/190
f 96/279/191 46/177/89 47/176/91 95/280/192
f 97/281/193 45/179/87 46/178/89 96/282/194
f 98/283/195 44/181/85 45/180/87 97/284/196
f 99/285/197 43/183/83 44/182/85 98/286/198
f 100/287/199 42/185/81 43/184/83 99/288/200
f 101/289/201 41/187/79 42/186/81 100/290/202
f 102/291/203 52/192/104 41/188/79 101/292/204
f 92/293/205 40/167/99 39/166/78 103/294/206
f 80/295/207 28/97/56 51/189/101 104/296/208
f 92/297/209 40/167/99 39/166/78 103/298/210
f 76/301/213 26/194/106 25/195/107 78/302/214
f 106/303/215 27/196/108 90/304/216
f 104/305/217 51/197/109 52/198/110 102/306/218