# Exported from Clara.io
g Cylinder
v 0 0.5 -0.5
v 0 -0.5 -0.5
v 0 0.5 -0.484375
v 0 -0.5 -0.484375
v 2.7755575615628914e-17 0 -0.476140625
v 0.02602470698682556 -0.5 -0.4965809890357339
v 0.026024706986825547 0.5 -0.4965809890357339
v 0.025211434893487247 0.5 -0.48106283312836723
v 0.02521143489348726 -0.5 -0.4810628331283672
v 0.025211434893487247 0.29888170798434666 -0.48106283312836723
v 0.024953472895148023 0 -0.476140625
v 0 0.5 -0.5
v 0 -0.5 -0.5
v 0 0.5 -0.484375
v 0 -0.5 -0.484375
v -2.7755575615628914e-17 0 -0.476140625
v -0.02602470698682556 -0.5 -0.4965809890357339
v -0.026024706986825547 0.5 -0.4965809890357339
v -0.025211434893487247 0.5 -0.48106283312836723
v -0.02521143489348726 -0.5 -0.4810628331283672
v -0.025211434893487247 0.29888170798434666 -0.48106283312836723
v -0.024953472895148023 0 -0.476140625

vn 0 -1 0
vn 0 0 -1
vn 0 0 -1
vn 0 1 0
vn 0 1 0
vn -0.06513425110096775 0.00830607426956553 0.9978419406217323
vn 0.06513425110096775 -0.00830607426956553 0.9978419406217323
vn 0 -1 0
vn 0.013031814973308992 -0.0016618725745449019 0.9913590331177964
vn 0.013031814973308964 -0.0016618725745449019 0.9913590331177964
vn 0.052058315836452235 0 -0.9931457013942573
vn 0.0520583158364522 0 -0.9931457013942573
vn 0 1 0
vn 0 1 0
vn 0 -1 0
vn 0 -1 0
vn -0.11662440971224708 0.008305132558321526 0.9876148382696991
vn -0.08618716134371542 0.004298232995027801 0.9959243377490457
vn 0 -1 0
vn 0 -1 0
vn 0.012738701602325188 -0.008306000970697044 0.9943925906605489
vn -0.03892522933463084 -0.0016602576552840174 0.9920420321616863
vn -0.038925229334630856 -0.0016602576552840174 0.9920420321616863
vn -0.08618716134371543 0.0042982329950278 0.9959243377490457
vn 0 -1 0
vn 0 0 -1
vn 0 0 -1
vn 0 1 0
vn 0 1 0
vn 0.06513425110096775 0.00830607426956553 0.9978419406217323
vn -0.06513425110096775 -0.00830607426956553 0.9978419406217323
vn 0 -1 0
vn -0.013031814973308992 -0.0016618725745449019 0.9913590331177964
vn -0.013031814973308964 -0.0016618725745449019 0.9913590331177964
vn -0.052058315836452235 0 -0.9931457013942573
vn -0.0520583158364522 0 -0.9931457013942573
vn 0 1 0
vn 0 1 0
vn 0 -1 0
vn 0 -1 0
vn 0.11662440971224708 0.008305132558321526 0.9876148382696991
vn 0.08618716134371542 0.004298232995027801 0.9959243377490457
vn 0 -1 0
vn 0 -1 0
vn -0.012738701602325188 -0.008306000970697044 0.9943925906605489
vn 0.03892522933463084 -0.0016602576552840174 0.9920420321616863
vn 0.038925229334630856 -0.0016602576552840174 0.9920420321616863
vn 0.08618716134371543 0.0042982329950278 0.9959243377490457

vt 0.5 0
vt 0.5 1
vt 0.5 1
vt 0.5 0
vt 0.484375 0.96875
vt 0.484375 0.03125
vt 0 0
vt 0 0
vt 0 0
vt 0 0
vt 0 0
vt 0.4916200711660144 0
vt 0.4916200711660144 1
vt 0.4916200711660144 1
vt 0.47625694394207646 0.96875
vt 0.4916200711660144 0
vt 0.47625694394207646 0.03125000000000001
vt 0 0
vt 0 0
vt 0.4916200711660144 0
vt 0.47625694394207646 0.03125000000000001
vt 0 0
vt 0 0
vt 0 0
vt 0 0
vt 0.5 0
vt 0.5 1
vt 0.5 1
vt 0.5 0
vt 0.484375 0.96875
vt 0.484375 0.03125
vt 0 0
vt 0 0
vt 0 0
vt 0 0
vt 0 0
vt 0.4916200711660144 0
vt 0.4916200711660144 1
vt 0.4916200711660144 1
vt 0.47625694394207646 0.96875
vt 0.4916200711660144 0
vt 0.47625694394207646 0.03125000000000001
vt 0 0
vt 0 0
vt 0.4916200711660144 0
vt 0.47625694394207646 0.03125000000000001
vt 0 0
vt 0 0
vt 0 0
vt 0 0

f 2/4/1 6/16/15 9/17/16 4/6/8
f 2/4/1 6/20/19 9/21/20 4/6/8
f 4/7/7 9/22/21 11/23/22 5/10/9
f 5/11/10 11/24/23 10/25/24 3/8/6
f 6/12/11 2/1/2 1/2/3 7/13/12
f 7/14/13 1/3/4 3/5/5 8/15/14
f 8/18/17 3/9/6 10/19/18
f 2/4/1 6/16/15 9/17/16 4/6/8
f 2/4/1 6/20/19 9/21/20 4/6/8
f 4/7/7 9/22/21 11/23/22 5/10/9
f 5/11/10 11/24/23 10/25/24 3/8/6
f 15/31/32 20/42/40 17/41/39 13/29/25
f 15/31/32 20/46/44 17/45/43 13/29/25
f 16/35/33 22/48/46 20/47/45 15/32/31
f 14/33/30 21/50/48 22/49/47 16/36/34
f 18/38/36 12/27/27 13/26/26 17/37/35
f 19/40/38 14/30/29 12/28/28 18/39/37
f 21/44/42 14/34/30 19/43/41
f 15/31/32 20/42/40 17/41/39 13/29/25
f 15/31/32 20/46/44 17/45/43 13/29/25
f 16/35/33 22/48/46 20/47/45 15/32/31
f 14/33/30 21/50/48 22/49/47 16/36/34