# Exported from Clara.io
g Cylinder
v 0 0.5 -0.5
v 0 -0.5 -0.5
v 0 0.5 -0.49609375
v 0 -0.5 -0.49609375
v 2.7755575615628914e-17 0 -0.48766015625
v -0.008707564080202953 -0.5 -0.49885603872207535
v -0.008707564080202956 0.5 -0.49885603872207535
v -0.008639536235826376 0.5 -0.49495872591955914
v -0.008639536235826369 -0.5 -0.49495872591955914
v -0.008639536235826369 -0.4327081601220792 -0.49495872591955914
v -0.008512139235171998 0 -0.48766015625
v 0 0.5 -0.5
v 0 -0.5 -0.5
v 0 0.5 -0.49609375
v 0 -0.5 -0.49609375
v -2.7755575615628914e-17 0 -0.48766015625
v 0.008707564080202953 -0.5 -0.49885603872207535
v 0.008707564080202956 0.5 -0.49885603872207535
v 0.008639536235826376 0.5 -0.49495872591955914
v 0.008639536235826369 -0.5 -0.49495872591955914
v 0.008639536235826369 -0.4327081601220792 -0.49495872591955914
v 0.008512139235171998 0 -0.48766015625

vn 0 -1 0
vn 0 0 -1
vn 0 0 -1
vn 0 1 0
vn 0 1 0
vn -0.06513414007517825 0.008507013308067584 0.997840255011414
vn 0.06513414007517827 -0.008507013308067584 0.997840255011414
vn 0 -1 0
vn 0.013031814049157153 -0.0017020790537758458 0.9913589661872121
vn 0.013031814049157153 -0.0017020790537758458 0.9913589661872121
vn -0.017418106620098576 0 -0.9977066314573854
vn -0.0174181066200986 0 -0.9977066314573854
vn 0 1 0
vn 0 1 0
vn 0 -1 0
vn 0 -1 0
vn 0.08236211898436813 -0.008506690601034546 0.9944183914587172
vn 0.07568595156861843 -0.0075917393407284785 0.996737093341573
vn 0.030336753782646077 -0.001702629934120762 0.9911314848186338
vn 0.07568595156861843 -0.0075917393407284785 0.996737093341573
vn 0.03033675378264608 -0.001702629934120762 0.9911314848186338
vn -0.047603228740184085 0.008506988189901712 0.9966861446259379
vn 0 1 0
vn 0 1 0
vn 0 -1 0
vn 0 0 -1
vn 0 0 -1
vn 0 1 0
vn 0 1 0
vn 0.06513414007517825 0.008507013308067584 0.997840255011414
vn -0.06513414007517827 -0.008507013308067584 0.997840255011414
vn 0 -1 0
vn -0.013031814049157153 -0.0017020790537758458 0.9913589661872121
vn -0.013031814049157153 -0.0017020790537758458 0.9913589661872121
vn 0.017418106620098576 0 -0.9977066314573854
vn 0.0174181066200986 0 -0.9977066314573854
vn 0 1 0
vn 0 1 0
vn 0 -1 0
vn 0 -1 0
vn -0.08236211898436813 -0.008506690601034546 0.9944183914587172
vn -0.07568595156861843 -0.0075917393407284785 0.996737093341573
vn -0.030336753782646077 -0.001702629934120762 0.9911314848186338
vn -0.07568595156861843 -0.0075917393407284785 0.996737093341573
vn -0.03033675378264608 -0.001702629934120762 0.9911314848186338
vn 0.047603228740184085 0.008506988189901712 0.9966861446259379
vn 0 1 0
vn 0 1 0

vt 0.5 1
vt 0.5 0
vt 0.5 1
vt 0.5 0
vt 0.49609375 0.9921875
vt 0.49609375 0.0078125
vt 0 0
vt 0 0
vt 0 0
vt 0 0
vt 0 0
vt 0.5028038266615801 0
vt 0.5028038266615801 1
vt 0.5028038266615801 1
vt 0.49887567176578645 0.9921875
vt 0.5028038266615801 0
vt 0.49887567176578645 0.007812500000000003
vt 0 0
vt 0 0
vt 0 0
vt 0 0
vt 0 0
vt 0 0
vt 0.5028038266615801 1
vt 0.49887567176578645 0.9921875
vt 0.5 1
vt 0.5 0
vt 0.5 1
vt 0.5 0
vt 0.49609375 0.9921875
vt 0.49609375 0.0078125
vt 0 0
vt 0 0
vt 0 0
vt 0 0
vt 0 0
vt 0.5028038266615801 0
vt 0.5028038266615801 1
vt 0.5028038266615801 1
vt 0.49887567176578645 0.9921875
vt 0.5028038266615801 0
vt 0.49887567176578645 0.007812500000000003
vt 0 0
vt 0 0
vt 0 0
vt 0 0
vt 0 0
vt 0 0
vt 0.5028038266615801 1
vt 0.49887567176578645 0.9921875

f 1/1/3 2/2/2 6/12/11 7/13/12
f 1/3/4 7/14/13 8/15/14 3/5/5
f 4/8/7 5/10/9 11/20/19 10/21/20
f 1/3/4 7/24/23 8/25/24 3/5/5
f 6/16/15 2/4/1 4/6/8 9/17/16
f 9/18/17 4/7/7 10/19/18
f 11/22/21 5/11/10 3/9/6 8/23/22
f 1/3/4 7/14/13 8/15/14 3/5/5
f 1/3/4 7/24/23 8/25/24 3/5/5
f 18/38/36 17/37/35 13/27/26 12/26/27
f 14/30/29 19/40/38 18/39/37 12/28/28
f 21/46/44 22/45/43 16/35/33 15/33/31
f 14/30/29 19/50/48 18/49/47 12/28/28
f 20/42/40 15/31/32 13/29/25 17/41/39
f 21/44/42 15/32/31 20/43/41
f 19/48/46 14/34/30 16/36/34 22/47/45
f 14/30/29 19/40/38 18/39/37 12/28/28
f 14/30/29 19/50/48 18/49/47 12/28/28