# Exported from Clara.io
g Cylinder
v 0 0.5 -0.5
v 0 -0.5 -0.5
v 0 -0.5 -0.46875
v 0 0.5 -0.46875
v 8.326672684688674e-17 0 -0.46078125
v 0.04324725316323255 -0.5 -0.4943183670496526
v 0.04324725316323256 0.5 -0.4943183670496526
v 0.04054429984053052 0.5 -0.4634234691090493
v 0.04054429984053051 -0.5 -0.4634234691090493
v 0.04054429984053052 0.16578629703838826 -0.4634234691090493
v 0.04031313562261201 0 -0.46078125
v 0 0.5 -0.5
v 0 -0.5 -0.5
v 0 -0.5 -0.46875
v 0 0.5 -0.46875
v -8.326672684688674e-17 0 -0.46078125
v -0.04324725316323255 -0.5 -0.4943183670496526
v -0.04324725316323256 0.5 -0.4943183670496526
v -0.04054429984053052 0.5 -0.4634234691090493
v -0.04054429984053051 -0.5 -0.4634234691090493
v -0.04054429984053052 0.16578629703838826 -0.4634234691090493
v -0.04031313562261201 0 -0.46078125

vn 0 -1 0
vn 0 0 -1
vn 0 0 -1
vn 0 1 0
vn 0 1 0
vn -0.06513439500774955 0.008038153990576242 0.9978441254361317
vn 0.06513439500774956 -0.008038153990576242 0.9978441254361317
vn 0 -1 0
vn 0.01303181617114782 -0.0016082639230442046 0.9913591198698082
vn 0.013031816171147848 -0.0016082639230442046 0.9913591198698082
vn 0.08650929923515677 0 -0.9886096858954452
vn 0.0865092992351568 0 -0.9886096858954452
vn 0 1 0
vn 0 1 0
vn 0 -1 0
vn 0 -1 0
vn -0.15069972991729616 0.00803663954790459 0.9808489266707068
vn -0.10011954329537841 0.0015928478121365634 0.9946560949786268
vn 0 -1 0
vn 0 -1 0
vn -0.02193550276479836 -0.008038036112679081 0.9921120631785777
vn -0.0737044056747292 -0.001605654959391766 0.9924993067826254
vn -0.07370440567472919 -0.001605654959391766 0.9924993067826254
vn -0.1001195432953784 0.001592847812136565 0.9946560949786268
vn 0 -1 0
vn 0 0 -1
vn 0 0 -1
vn 0 1 0
vn 0 1 0
vn 0.06513439500774955 0.008038153990576242 0.9978441254361317
vn -0.06513439500774956 -0.008038153990576242 0.9978441254361317
vn 0 -1 0
vn -0.01303181617114782 -0.0016082639230442046 0.9913591198698082
vn -0.013031816171147848 -0.0016082639230442046 0.9913591198698082
vn -0.08650929923515677 0 -0.9886096858954452
vn -0.0865092992351568 0 -0.9886096858954452
vn 0 1 0
vn 0 1 0
vn 0 -1 0
vn 0 -1 0
vn 0.15069972991729616 0.00803663954790459 0.9808489266707068
vn 0.10011954329537841 0.0015928478121365634 0.9946560949786268
vn 0 -1 0
vn 0 -1 0
vn 0.02193550276479836 -0.008038036112679081 0.9921120631785777
vn 0.0737044056747292 -0.001605654959391766 0.9924993067826254
vn 0.07370440567472919 -0.001605654959391766 0.9924993067826254
vn 0.1001195432953784 0.001592847812136565 0.9946560949786268

vt 0.5 0
vt 0.5 1
vt 0.5 1
vt 0.5 0
vt 0.46875 0.0625
vt 0.46875 0.9375
vt 0 0
vt 0 0
vt 0 0
vt 0 0
vt 0 0
vt 0.4860744290432662 0
vt 0.48607442904326614 1
vt 0.4860744290432662 1
vt 0.455694777228062 0.9375
vt 0.48607442904326614 0
vt 0.455694777228062 0.06250000000000003
vt 0 0
vt 0 0
vt 0.48607442904326614 0
vt 0.455694777228062 0.06250000000000003
vt 0 0
vt 0 0
vt 0 0
vt 0 0
vt 0.5 0
vt 0.5 1
vt 0.5 1
vt 0.5 0
vt 0.46875 0.0625
vt 0.46875 0.9375
vt 0 0
vt 0 0
vt 0 0
vt 0 0
vt 0 0
vt 0.4860744290432662 0
vt 0.48607442904326614 1
vt 0.4860744290432662 1
vt 0.455694777228062 0.9375
vt 0.48607442904326614 0
vt 0.455694777228062 0.06250000000000003
vt 0 0
vt 0 0
vt 0.48607442904326614 0
vt 0.455694777228062 0.06250000000000003
vt 0 0
vt 0 0
vt 0 0
vt 0 0

f 2/4/1 6/16/15 9/17/16 3/5/8
f 2/4/1 6/20/19 9/21/20 3/5/8
f 3/7/7 9/22/21 11/23/22 5/10/9
f 5/11/10 11/24/23 10/25/24 4/8/6
f 6/12/11 2/1/2 1/2/3 7/13/12
f 7/14/13 1/3/4 4/6/5 8/15/14
f 8/18/17 4/9/6 10/19/18
f 2/4/1 6/16/15 9/17/16 3/5/8
f 2/4/1 6/20/19 9/21/20 3/5/8
f 3/7/7 9/22/21 11/23/22 5/10/9
f 5/11/10 11/24/23 10/25/24 4/8/6
f 14/30/32 20/42/40 17/41/39 13/29/25
f 14/30/32 20/46/44 17/45/43 13/29/25
f 16/35/33 22/48/46 20/47/45 14/32/31
f 15/33/30 21/50/48 22/49/47 16/36/34
f 18/38/36 12/27/27 13/26/26 17/37/35
f 19/40/38 15/31/29 12/28/28 18/39/37
f 21/44/42 15/34/30 19/43/41
f 14/30/32 20/42/40 17/41/39 13/29/25
f 14/30/32 20/46/44 17/45/43 13/29/25
f 16/35/33 22/48/46 20/47/45 14/32/31
f 15/33/30 21/50/48 22/49/47 16/36/34